# Blender 4.3.0
# www.blender.org
mtllib Stair2.mtl
o Cube
v -2.000000 0.758353 -2.469011
v -2.000000 0.784423 2.751077
v 2.000000 1.714732 -2.761139
v 2.000000 0.758353 -2.469011
v -2.000000 1.740803 2.458949
v 2.000000 1.740803 2.458949
v 2.000000 0.784423 2.751077
v -2.000000 1.714732 -2.761139
v -2.250000 0.758353 -2.469011
v -2.250000 0.784423 2.751077
v 2.250000 1.714732 -2.761139
v 2.250000 0.758353 -2.469011
v -2.250000 1.740803 2.458949
v 2.250000 1.740803 2.458949
v 2.250000 0.784423 2.751077
v -2.250000 1.714732 -2.761139
v -2.000000 1.236965 2.264311
v -2.000000 1.476060 2.191279
v -2.000000 0.944838 1.307931
v -2.000000 1.183932 1.234899
v 2.000000 1.236965 2.264311
v 2.000000 1.476060 2.191279
v 2.000000 0.944838 1.307931
v 2.000000 1.183932 1.234899
v -2.000000 1.267404 -1.230354
v -2.000000 1.506499 -1.303386
v -2.000000 0.975276 -2.186734
v -2.000000 1.214371 -2.259766
v 2.000000 1.267404 -1.230354
v 2.000000 1.506499 -1.303386
v 2.000000 0.975276 -2.186734
v 2.000000 1.214371 -2.259766
v -2.000000 1.256249 -0.067260
v -2.000000 1.495344 -0.140292
v -2.000000 0.964121 -1.023640
v -2.000000 1.203216 -1.096672
v 2.000000 1.256249 -0.067260
v 2.000000 1.495344 -0.140292
v 2.000000 0.964121 -1.023640
v 2.000000 1.203216 -1.096672
v -2.000000 1.243953 1.095583
v -2.000000 1.483048 1.022551
v -2.000000 0.951825 0.139204
v -2.000000 1.190920 0.066172
v 2.000000 1.243953 1.095583
v 2.000000 1.483048 1.022551
v 2.000000 0.951825 0.139204
v 2.000000 1.190920 0.066172
vn -0.0000 -0.2921 -0.9564
vn -0.0000 0.2921 0.9564
vn -1.0000 -0.0000 -0.0000
vn 1.0000 -0.0000 -0.0000
vn -0.0000 1.0000 -0.0050
vn -0.0000 -1.0000 0.0050
vn -0.0000 -0.9564 0.2921
vn -0.0000 0.9564 -0.2921
vt 0.435570 0.866272
vt 0.435570 0.791132
vt 0.454355 0.791132
vt 0.454355 0.866272
vt 0.505959 0.791132
vt 0.505959 0.866272
vt 0.487174 0.866272
vt 0.487174 0.791132
vt 0.088381 0.038001
vt 0.088381 0.430247
vt 0.016409 0.408656
vt 0.016409 0.016409
vt 0.121199 0.038001
vt 0.193171 0.016409
vt 0.193171 0.408656
vt 0.121199 0.430247
vt 0.297962 0.430247
vt 0.225990 0.408656
vt 0.225990 0.016409
vt 0.297962 0.038001
vt 0.330780 0.038001
vt 0.402752 0.016409
vt 0.402752 0.408656
vt 0.330780 0.430247
vt 0.758391 0.401251
vt 0.758391 0.016409
vt 0.777177 0.016409
vt 0.777177 0.401251
vt 0.557562 0.791132
vt 0.557562 0.866272
vt 0.538777 0.866272
vt 0.538777 0.791132
vt 0.590381 0.866272
vt 0.590381 0.791132
vt 0.609166 0.791132
vt 0.609166 0.866272
vt 0.777177 0.434069
vt 0.777177 0.818911
vt 0.758391 0.818911
vt 0.758391 0.434069
vt 0.809995 0.401251
vt 0.809995 0.016409
vt 0.828780 0.016409
vt 0.828780 0.401251
vt 0.828780 0.434070
vt 0.828780 0.818912
vt 0.809995 0.818912
vt 0.809995 0.434070
vt 0.454355 0.758313
vt 0.435570 0.758313
vt 0.435570 0.683172
vt 0.454355 0.683172
vt 0.250409 0.763629
vt 0.231623 0.763629
vt 0.231623 0.463066
vt 0.250409 0.463066
vt 0.505959 0.758313
vt 0.487174 0.758313
vt 0.487174 0.683172
vt 0.505959 0.683172
vt 0.302012 0.763629
vt 0.283227 0.763629
vt 0.283227 0.463066
vt 0.302012 0.463066
vt 0.435570 0.316972
vt 0.435570 0.016409
vt 0.510359 0.016409
vt 0.510359 0.316972
vt 0.543177 0.316972
vt 0.543177 0.016409
vt 0.617966 0.016409
vt 0.617966 0.316972
vt 0.712373 0.758313
vt 0.693588 0.758313
vt 0.693588 0.683172
vt 0.712373 0.683172
vt 0.353616 0.763629
vt 0.334831 0.763629
vt 0.334831 0.463066
vt 0.353616 0.463066
vt 0.712373 0.866272
vt 0.693588 0.866272
vt 0.693588 0.791132
vt 0.712373 0.791132
vt 0.880384 0.316972
vt 0.861599 0.316972
vt 0.861599 0.016409
vt 0.880384 0.016409
vt 0.650784 0.316972
vt 0.650784 0.016409
vt 0.725573 0.016409
vt 0.725573 0.316972
vt 0.650784 0.650354
vt 0.650784 0.349791
vt 0.725573 0.349791
vt 0.725573 0.650354
vt 0.557562 0.758313
vt 0.538777 0.758313
vt 0.538777 0.683172
vt 0.557562 0.683172
vt 0.880384 0.650354
vt 0.861599 0.650354
vt 0.861599 0.349791
vt 0.880384 0.349791
vt 0.609166 0.758313
vt 0.590381 0.758313
vt 0.590381 0.683172
vt 0.609166 0.683172
vt 0.931987 0.316972
vt 0.913202 0.316972
vt 0.913202 0.016409
vt 0.931987 0.016409
vt 0.435570 0.650354
vt 0.435570 0.349791
vt 0.510359 0.349791
vt 0.510359 0.650354
vt 0.543177 0.650354
vt 0.543177 0.349791
vt 0.617966 0.349791
vt 0.617966 0.650354
vt 0.660770 0.758313
vt 0.641984 0.758313
vt 0.641984 0.683172
vt 0.660770 0.683172
vt 0.931987 0.650354
vt 0.913202 0.650354
vt 0.913202 0.349791
vt 0.931987 0.349791
vt 0.660770 0.866272
vt 0.641984 0.866272
vt 0.641984 0.791132
vt 0.660770 0.791132
vt 0.983591 0.316972
vt 0.964806 0.316972
vt 0.964806 0.016409
vt 0.983591 0.016409
vt 0.016409 0.763629
vt 0.016409 0.463066
vt 0.091198 0.463066
vt 0.091198 0.763629
vt 0.124016 0.763629
vt 0.124016 0.463066
vt 0.198805 0.463066
vt 0.198805 0.763629
s 0
usemtl Material
f 4/1/1 3/2/1 11/3/1 12/4/1
f 6/5/2 7/6/2 15/7/2 14/8/2
f 4/9/3 7/10/3 6/11/3 3/12/3
f 1/13/4 8/14/4 5/15/4 2/16/4
f 10/17/3 13/18/3 16/19/3 9/20/3
f 12/21/4 11/22/4 14/23/4 15/24/4
f 5/25/5 8/26/5 16/27/5 13/28/5
f 8/29/1 1/30/1 9/31/1 16/32/1
f 2/33/2 5/34/2 13/35/2 10/36/2
f 1/37/6 2/38/6 10/39/6 9/40/6
f 7/41/6 4/42/6 12/43/6 15/44/6
f 3/45/5 6/46/5 14/47/5 11/48/5
f 17/49/3 18/50/3 20/51/3 19/52/3
f 19/53/1 20/54/1 24/55/1 23/56/1
f 23/57/4 24/58/4 22/59/4 21/60/4
f 21/61/2 22/62/2 18/63/2 17/64/2
f 19/65/7 23/66/7 21/67/7 17/68/7
f 24/69/8 20/70/8 18/71/8 22/72/8
f 25/73/3 26/74/3 28/75/3 27/76/3
f 27/77/1 28/78/1 32/79/1 31/80/1
f 31/81/4 32/82/4 30/83/4 29/84/4
f 29/85/2 30/86/2 26/87/2 25/88/2
f 27/89/7 31/90/7 29/91/7 25/92/7
f 32/93/8 28/94/8 26/95/8 30/96/8
f 33/97/3 34/98/3 36/99/3 35/100/3
f 35/101/1 36/102/1 40/103/1 39/104/1
f 39/105/4 40/106/4 38/107/4 37/108/4
f 37/109/2 38/110/2 34/111/2 33/112/2
f 35/113/7 39/114/7 37/115/7 33/116/7
f 40/117/8 36/118/8 34/119/8 38/120/8
f 41/121/3 42/122/3 44/123/3 43/124/3
f 43/125/1 44/126/1 48/127/1 47/128/1
f 47/129/4 48/130/4 46/131/4 45/132/4
f 45/133/2 46/134/2 42/135/2 41/136/2
f 43/137/7 47/138/7 45/139/7 41/140/7
f 48/141/8 44/142/8 42/143/8 46/144/8
o 
v 0.000000 0.000000 0.000000
v 0.000000 0.000000 0.000000
