# Blender 4.3.0
# www.blender.org
mtllib Table.mtl
o Cube
v 4.000000 1.940553 -2.105243
v 4.000000 1.440553 -2.105243
v 4.000000 1.940553 2.105243
v 4.000000 1.440553 2.105243
v -4.000000 1.940553 -2.105243
v -4.000000 1.440553 -2.105243
v -4.000000 1.940553 2.105243
v -4.000000 1.440553 2.105243
v -4.000000 1.440553 0.000000
v 0.000000 1.440553 -2.000000
v 4.000000 1.690553 -2.105243
v -4.000000 1.690553 2.105243
v 4.000000 1.690553 2.105243
v -4.000000 1.690553 -2.105243
v 0.000000 1.940553 2.000000
v 4.000000 1.940553 0.000000
v 0.000000 1.440553 2.000000
v -4.000000 1.940553 0.000000
v 0.000000 1.940553 -2.000000
v 4.000000 1.440553 0.000000
v 0.000000 1.690553 -2.000000
v 4.000000 1.690553 0.000000
v 0.000000 1.440553 0.000000
v -4.000000 1.690553 0.000000
v 0.000000 1.690553 2.000000
v 0.000000 1.940553 0.000000
v -2.000000 1.440553 -2.052622
v -2.000000 1.940553 2.052622
v -2.000000 1.440553 2.052622
v -2.000000 1.940553 -2.052622
v -2.000000 1.690553 -2.052622
v -2.000000 1.440553 0.000000
v -2.000000 1.690553 2.052622
v -2.000000 1.940553 0.000000
v 2.000000 1.440553 2.052622
v 2.000000 1.940553 -2.052622
v 2.000000 1.440553 -2.052622
v 2.000000 1.940553 2.052622
v 2.000000 1.690553 -2.052622
v 2.000000 1.440553 0.000000
v 2.000000 1.690553 2.052622
v 2.000000 1.940553 0.000000
v 3.002047 1.440553 2.078987
v 3.002047 1.940553 -2.078987
v 3.002047 1.690553 -2.078987
v 3.002047 1.940553 0.000000
v 3.002047 1.440553 -2.078987
v 3.002047 1.940553 2.078987
v 3.002047 1.440553 0.000000
v 3.002047 1.690553 2.078987
v -3.000000 1.440553 -2.078933
v -3.000000 1.940553 2.078933
v -3.000000 1.440553 0.000000
v -3.000000 1.690553 2.078933
v -3.000000 1.440553 2.078933
v -3.000000 1.940553 -2.078933
v -3.000000 1.690553 -2.078933
v -3.000000 1.940553 0.000000
v -2.691481 1.440553 2.065737
v -2.498461 1.940553 -2.065737
v -2.498461 1.690553 -2.065737
v -2.498461 1.940553 0.000000
v -2.691481 1.440553 -2.065737
v -2.498461 1.940553 2.065737
v -2.691481 1.440553 0.000000
v -2.498461 1.690553 2.065737
v 2.707012 1.440553 -2.065804
v 2.501024 1.940553 2.065804
v 2.707012 1.440553 0.000000
v 2.501024 1.690553 2.065804
v 2.707012 1.440553 2.065804
v 2.501024 1.940553 -2.065804
v 2.501024 1.690553 -2.065804
v 2.501024 1.940553 0.000000
v 2.922542 0.000000 2.065804
v 3.217577 0.000000 2.078987
v 3.217577 0.000000 -2.078987
v 3.217577 0.000000 0.000000
v -2.804239 0.000000 -2.065737
v -3.112758 0.000000 -2.078933
v -2.804239 0.000000 0.000000
v -3.112758 0.000000 0.000000
v -3.112758 0.000000 2.078933
v -2.804239 0.000000 2.065737
v 2.922542 0.000000 -2.065804
v 2.922542 0.000000 0.000000
vn -0.0000 1.0000 -0.0000
vn 0.0263 -0.0000 0.9997
vn -1.0000 -0.0000 -0.0000
vn -0.0000 -1.0000 -0.0000
vn 1.0000 -0.0000 -0.0000
vn -0.0263 -0.0000 -0.9997
vn 0.0263 -0.0000 -0.9997
vn -0.0263 -0.0000 0.9997
vn 0.0220 -0.0085 -0.9997
vn -0.0218 -0.0090 0.9997
vn 0.0427 -0.0033 -0.9991
vn -0.0331 -0.0136 -0.9994
vn -0.9970 0.0780 -0.0000
vn 0.0326 -0.0126 0.9994
vn 0.0220 -0.0085 0.9997
vn 0.0326 -0.0126 -0.9994
vn 0.9970 -0.0780 -0.0000
vn 0.9890 0.1480 -0.0000
vn -0.0218 -0.0090 -0.9997
vn -0.0331 -0.0136 0.9994
vn -0.0446 -0.0067 0.9990
vn -0.0446 -0.0067 -0.9990
vn -0.9890 -0.1480 -0.0000
vn 0.0427 -0.0033 0.9991
vt 0.167077 0.523825
vt 0.167077 0.596708
vt 0.013639 0.596708
vt 0.015557 0.523825
vt 0.694424 0.086523
vt 0.676203 0.086522
vt 0.676198 0.013639
vt 0.694418 0.013639
vt 0.630652 0.587817
vt 0.612434 0.587817
vt 0.612434 0.434379
vt 0.630652 0.434379
vt 0.849094 0.777424
vt 0.776359 0.777424
vt 0.776359 0.623986
vt 0.849094 0.625900
vt 0.296498 0.777424
vt 0.278280 0.777424
vt 0.278280 0.623986
vt 0.296498 0.623986
vt 0.968134 0.523974
vt 0.986355 0.523974
vt 0.986361 0.596708
vt 0.968140 0.596708
vt 0.949914 0.523974
vt 0.949919 0.596708
vt 0.949908 0.159406
vt 0.968129 0.159406
vt 0.968117 0.305173
vt 0.949896 0.305173
vt 0.986350 0.159406
vt 0.986338 0.305173
vt 0.314716 0.777424
vt 0.314716 0.623986
vt 0.314716 0.930862
vt 0.296498 0.930862
vt 0.278280 0.930862
vt 0.498356 0.356703
vt 0.498356 0.210936
vt 0.644124 0.210936
vt 0.647959 0.356703
vt 0.348754 0.356703
vt 0.352589 0.210936
vt 0.849094 0.928948
vt 0.776359 0.930862
vt 0.648870 0.587817
vt 0.648870 0.434379
vt 0.648870 0.741255
vt 0.630652 0.741255
vt 0.612434 0.741255
vt 0.712645 0.086523
vt 0.712639 0.013639
vt 0.712651 0.450941
vt 0.694430 0.450941
vt 0.694441 0.305173
vt 0.712662 0.305173
vt 0.676209 0.450941
vt 0.676221 0.305173
vt 0.167077 0.159406
vt 0.167077 0.305174
vt 0.021310 0.305174
vt 0.017474 0.159406
vt 0.316680 0.159406
vt 0.312844 0.305174
vt 0.318597 0.523825
vt 0.320515 0.596708
vt 0.316679 0.450941
vt 0.167077 0.450941
vt 0.694430 0.159406
vt 0.712651 0.159406
vt 0.347798 0.407101
vt 0.498356 0.407101
vt 0.648915 0.407101
vt 0.968132 0.123076
vt 0.986352 0.123076
vt 0.949911 0.109008
vt 0.676209 0.159406
vt 0.017474 0.450941
vt 0.317640 0.122890
vt 0.167077 0.122890
vt 0.016514 0.122890
vt 0.694427 0.487457
vt 0.676206 0.487457
vt 0.712648 0.502470
vt 0.348754 0.065169
vt 0.498356 0.065169
vt 0.968129 0.450941
vt 0.949908 0.450941
vt 0.986350 0.450941
vt 0.647959 0.065169
vt 0.712639 0.596708
vt 0.694419 0.596708
vt 0.694424 0.523974
vt 0.712645 0.523974
vt 0.676198 0.596708
vt 0.676203 0.523974
vt 0.167077 0.013639
vt 0.167077 0.086374
vt 0.015553 0.086374
vt 0.013639 0.013639
vt 0.320515 0.013639
vt 0.318601 0.086374
vt 0.949914 0.086523
vt 0.844918 0.100790
vt 0.844921 0.078304
vt 0.949911 0.502470
vt 0.968132 0.487457
vt 0.986352 0.487457
vt 0.480323 0.737419
vt 0.480323 0.585899
vt 0.585156 0.585899
vt 0.585156 0.737420
vt 0.949919 0.013639
vt 0.968140 0.013639
vt 0.968134 0.086523
vt 0.986361 0.013639
vt 0.986355 0.086522
vt 0.749081 0.777424
vt 0.676198 0.777424
vt 0.676198 0.625904
vt 0.749081 0.623986
vt 0.749081 0.930862
vt 0.676198 0.928944
vt 0.317635 0.487271
vt 0.167077 0.487271
vt 0.712648 0.109008
vt 0.694427 0.123076
vt 0.676206 0.123076
vt 0.016518 0.487271
vt 0.146169 0.774545
vt 0.146169 0.623986
vt 0.251002 0.623986
vt 0.251002 0.774545
vt 0.347793 0.737427
vt 0.347793 0.585903
vt 0.453045 0.585903
vt 0.453045 0.737427
vt 0.498356 0.013639
vt 0.648920 0.013639
vt 0.347793 0.013639
vt 0.947639 0.926074
vt 0.926136 0.927035
vt 0.926136 0.775511
vt 0.947639 0.775511
vt 0.926136 0.623986
vt 0.947639 0.624947
vt 0.898858 0.775507
vt 0.876372 0.775507
vt 0.876372 0.624948
vt 0.898858 0.623986
vt 0.898858 0.927027
vt 0.876372 0.926065
vt 0.146169 0.925103
vt 0.251002 0.925103
vt 0.480323 0.434379
vt 0.585156 0.434379
vt 0.817640 0.518179
vt 0.817637 0.539682
vt 0.844921 0.539682
vt 0.844918 0.518179
vt 0.013639 0.774550
vt 0.013639 0.623986
vt 0.118891 0.623986
vt 0.118891 0.774550
vt 0.817637 0.078304
vt 0.817640 0.100790
vt 0.347793 0.434379
vt 0.453045 0.434379
vt 0.013639 0.925113
vt 0.118891 0.925113
s 0
usemtl Material
f 58/1/1 18/2/1 7/3/1 52/4/1
f 54/5/2 52/6/2 7/7/2 12/8/2
f 24/9/3 18/10/3 5/11/3 14/12/3
f 49/13/4 20/14/4 4/15/4 43/16/4
f 22/17/5 16/18/5 3/19/5 13/20/5
f 45/21/6 44/22/6 1/23/6 11/24/6
f 47/25/6 45/21/6 11/24/6 2/26/6
f 27/27/7 31/28/7 21/29/7 10/30/7
f 31/28/7 30/31/7 19/32/7 21/29/7
f 20/33/5 22/17/5 13/20/5 4/34/5
f 2/35/5 11/36/5 22/17/5 20/33/5
f 11/36/5 1/37/5 16/18/5 22/17/5
f 32/38/4 23/39/4 17/40/4 29/41/4
f 27/42/4 10/43/4 23/39/4 32/38/4
f 47/44/4 2/45/4 20/14/4 49/13/4
f 9/46/3 24/9/3 14/12/3 6/47/3
f 8/48/3 12/49/3 24/9/3 9/46/3
f 12/49/3 7/50/3 18/10/3 24/9/3
f 55/51/2 54/5/2 12/8/2 8/52/2
f 35/53/8 41/54/8 25/55/8 17/56/8
f 41/54/8 38/57/8 15/58/8 25/55/8
f 42/59/1 26/60/1 15/61/1 38/62/1
f 36/63/1 19/64/1 26/60/1 42/59/1
f 56/65/1 5/66/1 18/2/1 58/1/1
f 19/64/1 30/67/1 34/68/1 26/60/1
f 17/56/2 25/55/2 33/69/2 29/70/2
f 63/71/4 27/42/4 32/38/4 65/72/4
f 65/72/4 32/38/4 29/41/4 59/73/4
f 61/74/7 60/75/7 30/31/7 31/28/7
f 63/76/9 61/74/9 31/28/9 27/27/9
f 25/55/2 15/58/2 28/77/2 33/69/2
f 26/60/1 34/68/1 28/78/1 15/61/1
f 72/79/1 36/63/1 42/59/1 74/80/1
f 74/80/1 42/59/1 38/62/1 68/81/1
f 70/82/8 68/83/8 38/57/8 41/54/8
f 71/84/10 70/82/10 41/54/10 35/53/10
f 10/43/4 37/85/4 40/86/4 23/39/4
f 10/30/6 21/29/6 39/87/6 37/88/6
f 21/29/6 19/32/6 36/89/6 39/87/6
f 23/39/4 40/86/4 35/90/4 17/40/4
f 4/91/8 13/92/8 50/93/8 43/94/8
f 13/92/8 3/95/8 48/96/8 50/93/8
f 16/97/1 46/98/1 48/99/1 3/100/1
f 1/101/1 44/102/1 46/98/1 16/97/1
f 51/103/11 63/76/11 79/104/11 80/105/11
f 67/106/12 73/107/12 45/21/12 47/25/12
f 73/107/6 72/108/6 44/22/6 45/21/6
f 55/109/13 53/110/13 82/111/13 83/112/13
f 6/113/7 14/114/7 57/115/7 51/103/7
f 14/114/7 5/116/7 56/117/7 57/115/7
f 9/118/4 53/119/4 55/120/4 8/121/4
f 6/122/4 51/123/4 53/119/4 9/118/4
f 60/124/1 56/65/1 58/1/1 62/125/1
f 59/126/14 66/127/14 54/5/14 55/51/14
f 66/127/2 64/128/2 52/6/2 54/5/2
f 62/125/1 58/1/1 52/4/1 64/129/1
f 34/68/1 62/125/1 64/129/1 28/78/1
f 33/69/2 28/77/2 64/128/2 66/127/2
f 29/70/15 33/69/15 66/127/15 59/126/15
f 30/67/1 60/124/1 62/125/1 34/68/1
f 51/103/16 57/115/16 61/74/16 63/76/16
f 57/115/7 56/117/7 60/75/7 61/74/7
f 65/130/17 59/131/17 84/132/17 81/133/17
f 47/134/18 49/135/18 78/136/18 77/137/18
f 40/86/4 69/138/4 71/139/4 35/90/4
f 39/87/6 36/89/6 72/108/6 73/107/6
f 37/88/19 39/87/19 73/107/19 67/106/19
f 37/85/4 67/140/4 69/138/4 40/86/4
f 43/94/20 50/93/20 70/82/20 71/84/20
f 50/93/8 48/96/8 68/83/8 70/82/8
f 46/98/1 74/80/1 68/81/1 48/99/1
f 44/102/1 72/79/1 74/80/1 46/98/1
f 85/141/4 77/142/4 78/143/4 86/144/4
f 86/144/4 78/143/4 76/145/4 75/146/4
f 82/147/4 81/148/4 84/149/4 83/150/4
f 80/151/4 79/152/4 81/148/4 82/147/4
f 63/153/17 65/130/17 81/133/17 79/154/17
f 53/110/13 51/155/13 80/156/13 82/111/13
f 43/94/21 71/84/21 75/157/21 76/158/21
f 67/106/22 47/25/22 77/159/22 85/160/22
f 69/161/23 67/162/23 85/163/23 86/164/23
f 59/126/24 55/51/24 83/165/24 84/166/24
f 49/135/18 43/167/18 76/168/18 78/136/18
f 71/169/23 69/161/23 86/164/23 75/170/23
