# Blender 4.3.0
# www.blender.org
mtllib Basket2.mtl
o Cube
v 1.000000 2.000000 -1.000000
v 0.891852 0.000000 -0.891852
v 1.000000 2.000000 1.000000
v 0.891852 0.000000 0.891852
v -1.000000 2.000000 -1.000000
v -0.891852 0.000000 -0.891852
v -1.000000 2.000000 1.000000
v -0.891852 0.000000 0.891852
v -1.059238 2.016484 0.732192
v -0.806487 2.310581 0.579237
v -0.581514 2.016484 -1.209915
v -0.428560 2.310581 -0.957165
v 0.882869 2.016484 1.209915
v 0.729915 2.310581 0.957165
v 1.360593 2.016484 -0.732192
v 1.107842 2.310581 -0.579237
vn -0.0000 1.0000 -0.0000
vn -0.0000 -0.0540 0.9985
vn -0.9985 -0.0540 -0.0000
vn -0.0000 -1.0000 -0.0000
vn 0.9985 -0.0540 -0.0000
vn -0.0000 -0.0540 -0.9985
vn -0.7917 0.5791 -0.1947
vn 0.1947 0.5791 -0.7917
vn 0.7917 0.5791 0.1947
vn -0.1947 0.5791 0.7917
vt 0.625000 0.500000
vt 0.875000 0.500000
vt 0.875000 0.750000
vt 0.625000 0.750000
vt 0.375000 0.750000
vt 0.625000 1.000000
vt 0.375000 1.000000
vt 0.375000 0.000000
vt 0.625000 0.000000
vt 0.625000 0.250000
vt 0.375000 0.250000
vt 0.125000 0.500000
vt 0.375000 0.500000
vt 0.125000 0.750000
s 0
usemtl Material
f 1/1/1 5/2/1 7/3/1 3/4/1
f 4/5/2 3/4/2 7/6/2 8/7/2
f 8/8/3 7/9/3 5/10/3 6/11/3
f 6/12/4 2/13/4 4/5/4 8/14/4
f 2/13/5 1/1/5 3/4/5 4/5/5
f 6/11/6 5/10/6 1/1/6 2/13/6
f 9/8/7 10/9/7 12/10/7 11/11/7
f 11/11/8 12/10/8 16/1/8 15/13/8
f 15/13/9 16/1/9 14/4/9 13/5/9
f 13/5/10 14/4/10 10/6/10 9/7/10
f 11/12/4 15/13/4 13/5/4 9/14/4
f 16/1/1 12/2/1 10/3/1 14/4/1
